<svg width="209" height="43" viewBox="0 0 209 43" fill="none" xmlns="http://www.w3.org/2000/svg">
<g clip-path="url(#clip0_502_474)">
<path d="M31.9682 25.778L26.2562 25.88V27.716L32.8182 27.58C33.6342 27.58 34.0422 27.954 34.0422 28.668V32.68C34.0422 33.394 33.6342 33.768 32.8182 33.768L12.2142 34.108C11.3982 34.108 10.9902 33.734 10.9902 33.02V29.008C10.9902 28.294 11.3982 27.92 12.2142 27.92L18.7762 27.818V26.016L12.6562 26.118C11.7042 26.118 11.2962 25.676 11.2622 24.486L11.0242 8.642C11.0242 7.758 11.3982 7.316 12.1802 7.316L32.4442 6.976C33.4982 6.976 33.8722 7.418 33.8382 8.608L33.3622 24.146C33.3282 25.336 32.9542 25.778 31.9682 25.778ZM26.0862 13.504L18.6742 13.674L18.7422 19.42L25.9842 19.25L26.0862 13.504ZM60.5388 38.63L40.5808 38.936C39.5948 38.936 39.1188 38.358 39.1188 37.236V30.538C39.1188 29.348 39.5608 28.906 40.5128 28.906H45.2048C46.1908 28.906 46.5988 29.348 46.5988 30.538V32.34L60.6068 32.102C61.3888 32.102 61.7628 32.544 61.7628 33.394V37.338C61.7628 38.256 61.4568 38.63 60.5388 38.63ZM39.7648 21.63L61.0488 21.29C61.8648 21.29 62.2728 21.664 62.2728 22.378V26.39C62.2728 27.104 61.8648 27.478 61.0488 27.478L39.7648 27.818C38.9488 27.818 38.5408 27.444 38.5408 26.73V22.718C38.5408 22.004 38.9488 21.63 39.7648 21.63ZM60.8788 11.94L46.1568 12.28L46.1908 14.762L60.6068 14.456C61.5588 14.422 61.8308 14.864 61.8308 15.918V18.706C61.8308 19.76 61.5588 20.168 60.6068 20.168L40.3768 20.508C39.4248 20.508 39.0168 19.93 38.9828 18.876L38.6768 8.268C38.6428 7.078 39.0848 6.636 40.0708 6.636L60.8788 6.296C61.8648 6.296 62.1028 6.568 62.1028 7.758V10.478C62.1028 11.668 61.8648 11.906 60.8788 11.94ZM76.4367 15.51C76.4367 9.696 81.1967 6.296 87.8267 6.296C94.4567 6.296 99.2167 9.696 99.2167 15.51C99.2167 21.324 94.4567 24.724 87.8267 24.724C81.1967 24.724 76.4367 21.324 76.4367 15.51ZM98.4687 31.728L96.1567 31.762V35.128C96.1567 36.318 95.8167 36.76 94.7627 36.76H90.4107C89.3567 36.76 89.0167 36.318 89.0167 35.128V31.898L86.6367 31.932V35.468C86.6367 36.658 86.2967 37.1 85.2427 37.1H80.8907C79.8367 37.1 79.4967 36.658 79.4967 35.468V32.034L77.1847 32.068C76.3687 32.068 75.9607 31.694 75.9607 30.98V26.968C75.9607 26.254 76.3687 25.88 77.1847 25.88L98.4687 25.54C99.2847 25.54 99.6927 25.914 99.6927 26.628V30.64C99.6927 31.354 99.2847 31.728 98.4687 31.728ZM87.8267 18.536C90.4107 18.536 91.7367 17.244 91.7367 15.51C91.7367 13.776 90.4107 12.484 87.8267 12.484C85.2427 12.484 83.9167 13.776 83.9167 15.51C83.9167 17.244 85.2427 18.536 87.8267 18.536ZM112.283 26.39C106.843 26.39 103.851 24.078 103.851 20.27C103.851 16.462 106.843 14.15 112.283 14.15C113.813 14.15 115.173 14.354 116.329 14.728L123.095 14.626V8.676C123.095 7.554 123.571 6.976 124.557 6.976H129.113C130.099 6.976 130.575 7.554 130.575 8.676V24.18C130.575 25.302 130.099 25.88 129.113 25.88H124.557C123.707 25.88 123.231 25.472 123.129 24.656L118.539 24.724C117.077 25.778 115.003 26.39 112.283 26.39ZM119.763 39.616C114.119 39.616 110.311 37.44 110.311 33.19C110.311 28.94 114.119 26.764 119.763 26.764C125.407 26.764 129.215 28.94 129.215 33.19C129.215 37.44 125.407 39.616 119.763 39.616ZM121.293 8.846V11.634C121.293 12.824 120.987 13.13 120.001 13.164L104.157 13.504C103.205 13.538 102.865 13.164 102.865 11.974V9.186C102.865 7.996 103.205 7.69 104.157 7.656L108.373 7.588V6.33C108.373 5.14 108.815 4.8 109.767 4.8H114.459C115.411 4.8 115.853 5.14 115.853 6.33V7.418L120.001 7.316C120.987 7.282 121.293 7.656 121.293 8.846ZM119.763 34.652C121.429 34.652 122.211 34.108 122.211 33.19C122.211 32.272 121.429 31.728 119.763 31.728C118.097 31.728 117.315 32.272 117.315 33.19C117.315 34.108 118.097 34.652 119.763 34.652ZM112.283 21.8C113.337 21.8 114.187 21.324 114.187 20.27C114.187 19.216 113.337 18.74 112.283 18.74C111.195 18.74 110.379 19.216 110.379 20.27C110.379 21.324 111.195 21.8 112.283 21.8ZM120.715 20.27V20.372L123.095 20.338V18.944L120.579 18.978C120.681 19.352 120.715 19.76 120.715 20.27ZM165.312 25.778L159.6 25.88V27.716L166.162 27.58C166.978 27.58 167.386 27.954 167.386 28.668V32.68C167.386 33.394 166.978 33.768 166.162 33.768L145.558 34.108C144.742 34.108 144.334 33.734 144.334 33.02V29.008C144.334 28.294 144.742 27.92 145.558 27.92L152.12 27.818V26.016L146 26.118C145.048 26.118 144.64 25.54 144.606 24.486L144.368 8.948C144.334 7.758 144.776 7.316 145.762 7.316H150.454C151.406 7.316 151.848 7.758 151.848 8.948V10.682L159.668 10.478L159.702 8.608C159.702 7.418 160.144 6.976 161.096 6.976H165.788C166.774 6.976 167.216 7.418 167.182 8.608L166.706 24.146C166.672 25.2 166.264 25.778 165.312 25.778ZM151.814 19.692L159.532 19.42L159.566 16.87L151.814 17.04V19.692ZM191.129 30.64V9.356C191.129 8.234 191.605 7.656 192.591 7.656H197.147C198.133 7.656 198.609 8.234 198.609 9.356V30.64C198.609 31.762 198.133 32.34 197.147 32.34H192.591C191.605 32.34 191.129 31.762 191.129 30.64ZM180.147 31.388L181.575 14.286L172.463 14.524C171.647 14.558 171.239 14.218 171.239 13.436V8.404C171.239 7.622 171.647 7.35 172.463 7.316L187.933 6.976C188.953 6.942 189.429 7.486 189.327 8.608L187.593 31.388C187.491 32.578 187.185 33.02 186.199 33.02H181.541C180.589 33.02 180.045 32.578 180.147 31.388Z" fill="white"/>
<path d="M31.9682 25.778V24.778H31.9592L31.9503 24.7782L31.9682 25.778ZM26.2562 25.88L26.2383 24.8802L25.2562 24.8977V25.88H26.2562ZM26.2562 27.716H25.2562V28.7369L26.2769 28.7158L26.2562 27.716ZM32.8182 27.58V26.58H32.8078L32.7975 26.5802L32.8182 27.58ZM32.8182 33.768V32.768H32.8099L32.8017 32.7681L32.8182 33.768ZM12.2142 34.108V35.108H12.2224L12.2307 35.1079L12.2142 34.108ZM12.2142 27.92V28.92H12.2219L12.2297 28.9199L12.2142 27.92ZM18.7762 27.818L18.7917 28.8179L19.7762 28.8026V27.818H18.7762ZM18.7762 26.016H19.7762V24.9992L18.7595 25.0161L18.7762 26.016ZM12.6562 26.118V27.118H12.6645L12.6728 27.1179L12.6562 26.118ZM11.2622 24.486L10.2622 24.501L10.2626 24.5146L11.2622 24.486ZM11.0242 8.642H10.0242V8.64951L10.0243 8.65702L11.0242 8.642ZM12.1802 7.316V8.316H12.1886L12.1969 8.31586L12.1802 7.316ZM32.4442 6.976V5.976H32.4358L32.4274 5.97614L32.4442 6.976ZM33.8382 8.608L34.8377 8.63862L34.8378 8.63656L33.8382 8.608ZM33.3622 24.146L32.3626 24.1154L32.3626 24.1174L33.3622 24.146ZM26.0862 13.504L27.086 13.5217L27.1045 12.4804L26.0632 12.5043L26.0862 13.504ZM18.6742 13.674L18.6512 12.6743L17.6625 12.6969L17.6742 13.6858L18.6742 13.674ZM18.7422 19.42L17.7422 19.4318L17.7542 20.4435L18.7656 20.4197L18.7422 19.42ZM25.9842 19.25L26.0076 20.2497L26.967 20.2272L26.984 19.2677L25.9842 19.25ZM31.9503 24.7782L26.2383 24.8802L26.274 26.8798L31.986 26.7778L31.9503 24.7782ZM25.2562 25.88V27.716H27.2562V25.88H25.2562ZM26.2769 28.7158L32.8389 28.5798L32.7975 26.5802L26.2355 26.7162L26.2769 28.7158ZM32.8182 28.58C32.9487 28.58 33.0262 28.5953 33.0645 28.6069C33.0996 28.6175 33.0919 28.6217 33.0689 28.6011C33.0437 28.5785 33.0319 28.5546 33.0298 28.5491C33.0297 28.549 33.0422 28.5826 33.0422 28.668H35.0422C35.0422 28.1203 34.8801 27.5384 34.4034 27.1114C33.9468 26.7024 33.3602 26.58 32.8182 26.58V28.58ZM33.0422 28.668V32.68H35.0422V28.668H33.0422ZM33.0422 32.68C33.0422 32.7654 33.0297 32.799 33.0298 32.7989C33.0319 32.7934 33.0437 32.7695 33.0689 32.7469C33.0919 32.7263 33.0996 32.7305 33.0645 32.7411C33.0262 32.7527 32.9487 32.768 32.8182 32.768V34.768C33.3602 34.768 33.9468 34.6456 34.4034 34.2366C34.8801 33.8096 35.0422 33.2277 35.0422 32.68H33.0422ZM32.8017 32.7681L12.1977 33.1081L12.2307 35.1079L32.8347 34.7679L32.8017 32.7681ZM12.2142 33.108C12.0836 33.108 12.0062 33.0927 11.9678 33.0811C11.9328 33.0705 11.9405 33.0663 11.9634 33.0869C11.9886 33.1095 12.0005 33.1334 12.0025 33.1389C12.0026 33.139 11.9902 33.1054 11.9902 33.02H9.99017C9.99017 33.5677 10.1523 34.1496 10.6289 34.5766C11.0855 34.9856 11.6721 35.108 12.2142 35.108V33.108ZM11.9902 33.02V29.008H9.99017V33.02H11.9902ZM11.9902 29.008C11.9902 28.9226 12.0026 28.889 12.0025 28.8891C12.0005 28.8946 11.9886 28.9185 11.9634 28.9411C11.9405 28.9617 11.9328 28.9575 11.9678 28.9469C12.0062 28.9353 12.0836 28.92 12.2142 28.92V26.92C11.6721 26.92 11.0855 27.0424 10.6289 27.4514C10.1523 27.8784 9.99017 28.4603 9.99017 29.008H11.9902ZM12.2297 28.9199L18.7917 28.8179L18.7606 26.8181L12.1986 26.9201L12.2297 28.9199ZM19.7762 27.818V26.016H17.7762V27.818H19.7762ZM18.7595 25.0161L12.6395 25.1181L12.6728 27.1179L18.7928 27.0159L18.7595 25.0161ZM12.6562 25.118C12.3196 25.118 12.3249 25.0407 12.3698 25.0924C12.3768 25.1005 12.2768 24.9849 12.2618 24.4574L10.2626 24.5146C10.2815 25.1771 10.4025 25.8775 10.8601 26.4041C11.3555 26.9743 12.0408 27.118 12.6562 27.118V25.118ZM12.2621 24.471L12.0241 8.62698L10.0243 8.65702L10.2623 24.501L12.2621 24.471ZM12.0242 8.642C12.0242 8.31648 12.0967 8.2654 12.0651 8.30188C12.0577 8.31047 12.0483 8.31893 12.0384 8.32574C12.0288 8.33239 12.0233 8.33425 12.0256 8.33336C12.0319 8.33099 12.0762 8.316 12.1802 8.316V6.316C11.6005 6.316 10.9916 6.48599 10.5528 6.99312C10.1387 7.4716 10.0242 8.08352 10.0242 8.642H12.0242ZM12.1969 8.31586L32.4609 7.97586L32.4274 5.97614L12.1634 6.31614L12.1969 8.31586ZM32.4442 7.976C32.8679 7.976 32.8529 8.0704 32.7882 7.99448C32.7675 7.9703 32.7861 7.9759 32.8071 8.06947C32.8293 8.16845 32.8457 8.32917 32.8386 8.57944L34.8378 8.63656C34.8563 7.9887 34.7844 7.25334 34.3102 6.69701C33.8035 6.1026 33.0744 5.976 32.4442 5.976V7.976ZM32.8386 8.57738L32.3626 24.1154L34.3617 24.1766L34.8377 8.63862L32.8386 8.57738ZM32.3626 24.1174C32.3554 24.3704 32.3307 24.5384 32.3019 24.6472C32.2741 24.7523 32.2503 24.7722 32.2612 24.7595C32.3154 24.6958 32.332 24.778 31.9682 24.778V26.778C32.5904 26.778 33.2869 26.6392 33.7832 26.057C34.2361 25.5257 34.3433 24.8208 34.3618 24.1746L32.3626 24.1174ZM26.0632 12.5043L18.6512 12.6743L18.6971 14.6737L26.1091 14.5037L26.0632 12.5043ZM17.6742 13.6858L17.7422 19.4318L19.7421 19.4082L19.6741 13.6622L17.6742 13.6858ZM18.7656 20.4197L26.0076 20.2497L25.9607 18.2503L18.7187 18.4203L18.7656 20.4197ZM26.984 19.2677L27.086 13.5217L25.0863 13.4863L24.9843 19.2323L26.984 19.2677ZM60.5388 38.63V37.63H60.5311L60.5235 37.6301L60.5388 38.63ZM40.5808 38.936V39.936H40.5885L40.5961 39.9359L40.5808 38.936ZM46.5988 32.34H45.5988V33.3571L46.6158 33.3399L46.5988 32.34ZM60.6068 32.102V31.102H60.5983L60.5898 31.1021L60.6068 32.102ZM39.7648 21.63V22.63H39.7728L39.7808 22.6299L39.7648 21.63ZM61.0488 21.29V20.29H61.0408L61.0328 20.2901L61.0488 21.29ZM61.0488 27.478V26.478H61.0408L61.0328 26.4781L61.0488 27.478ZM39.7648 27.818V28.818H39.7728L39.7808 28.8179L39.7648 27.818ZM60.8788 11.94L60.9019 12.9398L60.9133 12.9394L60.8788 11.94ZM46.1568 12.28L46.1337 11.2803L45.1433 11.3031L45.1569 12.2937L46.1568 12.28ZM46.1908 14.762L45.1909 14.7757L45.2047 15.7832L46.212 15.7618L46.1908 14.762ZM60.6068 14.456L60.628 15.4558L60.6353 15.4556L60.6425 15.4554L60.6068 14.456ZM60.6068 20.168V19.168H60.5984L60.59 19.1681L60.6068 20.168ZM40.3768 20.508V21.508H40.3852L40.3936 21.5079L40.3768 20.508ZM38.9828 18.876L37.9832 18.9048L37.9833 18.9082L38.9828 18.876ZM38.6768 8.268L37.6772 8.29656L37.6772 8.29683L38.6768 8.268ZM40.0708 6.636V7.636H40.079L40.0871 7.63586L40.0708 6.636ZM60.8788 6.296V5.296H60.8706L60.8625 5.29613L60.8788 6.296ZM60.5235 37.6301L40.5655 37.9361L40.5961 39.9359L60.5541 39.6299L60.5235 37.6301ZM40.5808 37.936C40.4297 37.936 40.3435 37.9136 40.3008 37.8969C40.2642 37.8826 40.251 37.8697 40.2417 37.8588C40.2163 37.8289 40.1188 37.6794 40.1188 37.236H38.1188C38.1188 37.9146 38.2593 38.6151 38.7184 39.1547C39.204 39.7255 39.8883 39.936 40.5808 39.936V37.936ZM40.1188 37.236V30.538H38.1188V37.236H40.1188ZM40.1188 30.538C40.1188 30.0281 40.221 29.9234 40.2076 29.9386C40.1664 29.9851 40.173 29.906 40.5128 29.906V27.906C39.9006 27.906 39.2102 28.0479 38.71 28.6129C38.2376 29.1466 38.1188 29.8579 38.1188 30.538H40.1188ZM40.5128 29.906H45.2048V27.906H40.5128V29.906ZM45.2048 29.906C45.5716 29.906 45.5672 29.9898 45.5167 29.9316C45.5045 29.9176 45.5263 29.9335 45.5511 30.0299C45.5771 30.1309 45.5988 30.2919 45.5988 30.538H47.5988C47.5988 29.8742 47.4946 29.1587 47.0264 28.6199C46.5254 28.0432 45.824 27.906 45.2048 27.906V29.906ZM45.5988 30.538V32.34H47.5988V30.538H45.5988ZM46.6158 33.3399L60.6238 33.1019L60.5898 31.1021L46.5818 31.3401L46.6158 33.3399ZM60.6068 33.102C60.7106 33.102 60.7563 33.1169 60.7643 33.12C60.7664 33.1207 60.7472 33.1124 60.7282 33.0909C60.694 33.0521 60.7628 33.0939 60.7628 33.394H62.7628C62.7628 32.8441 62.6446 32.2399 62.2279 31.7676C61.79 31.2714 61.186 31.102 60.6068 31.102V33.102ZM60.7628 33.394V37.338H62.7628V33.394H60.7628ZM60.7628 37.338C60.7628 37.5187 60.747 37.6215 60.7333 37.6736C60.7215 37.7189 60.7197 37.6942 60.7585 37.6518C60.8003 37.6063 60.8367 37.5972 60.8185 37.6029C60.7896 37.612 60.7073 37.63 60.5388 37.63V39.63C61.097 39.63 61.756 39.5225 62.2316 39.0047C62.687 38.5088 62.7628 37.8589 62.7628 37.338H60.7628ZM39.7808 22.6299L61.0648 22.2899L61.0328 20.2901L39.7488 20.6301L39.7808 22.6299ZM61.0488 22.29C61.1794 22.29 61.2568 22.3053 61.2951 22.3169C61.3302 22.3275 61.3225 22.3317 61.2996 22.3111C61.2744 22.2885 61.2625 22.2646 61.2604 22.2591C61.2604 22.259 61.2728 22.2926 61.2728 22.378H63.2728C63.2728 21.8303 63.1107 21.2484 62.634 20.8214C62.1774 20.4124 61.5909 20.29 61.0488 20.29V22.29ZM61.2728 22.378V26.39H63.2728V22.378H61.2728ZM61.2728 26.39C61.2728 26.4754 61.2604 26.509 61.2604 26.5089C61.2625 26.5034 61.2744 26.4795 61.2996 26.4569C61.3225 26.4363 61.3302 26.4405 61.2951 26.4511C61.2568 26.4627 61.1794 26.478 61.0488 26.478V28.478C61.5909 28.478 62.1774 28.3556 62.634 27.9466C63.1107 27.5196 63.2728 26.9377 63.2728 26.39H61.2728ZM61.0328 26.4781L39.7488 26.8181L39.7808 28.8179L61.0648 28.4779L61.0328 26.4781ZM39.7648 26.818C39.6342 26.818 39.5568 26.8027 39.5185 26.7911C39.4834 26.7805 39.4911 26.7763 39.514 26.7969C39.5392 26.8195 39.5511 26.8434 39.5532 26.8489C39.5532 26.849 39.5408 26.8154 39.5408 26.73H37.5408C37.5408 27.2777 37.7029 27.8596 38.1795 28.2866C38.6361 28.6956 39.2227 28.818 39.7648 28.818V26.818ZM39.5408 26.73V22.718H37.5408V26.73H39.5408ZM39.5408 22.718C39.5408 22.6326 39.5532 22.599 39.5532 22.5991C39.5511 22.6046 39.5392 22.6285 39.514 22.6511C39.4911 22.6717 39.4834 22.6675 39.5185 22.6569C39.5568 22.6453 39.6342 22.63 39.7648 22.63V20.63C39.2227 20.63 38.6361 20.7524 38.1795 21.1614C37.7029 21.5884 37.5408 22.1703 37.5408 22.718H39.5408ZM60.8557 10.9403L46.1337 11.2803L46.1799 13.2797L60.9019 12.9397L60.8557 10.9403ZM45.1569 12.2937L45.1909 14.7757L47.1907 14.7483L47.1567 12.2663L45.1569 12.2937ZM46.212 15.7618L60.628 15.4558L60.5856 13.4562L46.1696 13.7622L46.212 15.7618ZM60.6425 15.4554C60.8098 15.4494 60.8759 15.468 60.8834 15.4706C60.8839 15.4707 60.8692 15.4657 60.8473 15.4507C60.8246 15.4352 60.8045 15.4159 60.7895 15.3968C60.7608 15.3604 60.7759 15.3574 60.7955 15.4489C60.8154 15.5425 60.8308 15.6905 60.8308 15.918H62.8308C62.8308 15.3702 62.7753 14.687 62.3621 14.1612C61.8853 13.5543 61.1794 13.4349 60.5711 13.4566L60.6425 15.4554ZM60.8308 15.918V18.706H62.8308V15.918H60.8308ZM60.8308 18.706C60.8308 18.9338 60.8154 19.0783 60.7961 19.1675C60.7775 19.2532 60.7642 19.2459 60.7949 19.2076C60.8337 19.1591 60.877 19.1413 60.8749 19.142C60.8571 19.1481 60.7818 19.168 60.6068 19.168V21.168C61.1923 21.168 61.885 21.0466 62.3567 20.4569C62.7754 19.9335 62.8308 19.2541 62.8308 18.706H60.8308ZM60.59 19.1681L40.36 19.5081L40.3936 21.5079L60.6236 21.1679L60.59 19.1681ZM40.3768 19.508C40.238 19.508 40.1679 19.4868 40.1409 19.4757C40.1205 19.4674 40.1161 19.4622 40.1106 19.4553C40.0862 19.4254 39.9962 19.2765 39.9823 18.8438L37.9833 18.9082C38.0034 19.5295 38.1344 20.1966 38.5605 20.7192C39.0239 21.2875 39.686 21.508 40.3768 21.508V19.508ZM39.9824 18.8472L39.6764 8.23917L37.6772 8.29683L37.9832 18.9048L39.9824 18.8472ZM39.6764 8.23944C39.6619 7.73068 39.7644 7.6411 39.7401 7.66859C39.6934 7.72129 39.7011 7.636 40.0708 7.636V5.636C39.4545 5.636 38.7482 5.77171 38.2425 6.34291C37.7592 6.88889 37.6577 7.61532 37.6772 8.29656L39.6764 8.23944ZM40.0871 7.63586L60.8951 7.29587L60.8625 5.29613L40.0545 5.63613L40.0871 7.63586ZM60.8788 7.296C61.093 7.296 61.1885 7.31244 61.2218 7.32156C61.2345 7.32503 61.1634 7.30529 61.096 7.22535C61.0398 7.15862 61.0501 7.12401 61.0688 7.21948C61.0881 7.31838 61.1028 7.48343 61.1028 7.758H63.1028C63.1028 7.43757 63.0877 7.12237 63.0316 6.83558C62.9748 6.54536 62.8641 6.21963 62.6251 5.93615C62.1227 5.34028 61.3766 5.296 60.8788 5.296V7.296ZM61.1028 7.758V10.478H63.1028V7.758H61.1028ZM61.1028 10.478C61.1028 10.753 61.0881 10.9146 61.0693 11.0092C61.0516 11.0986 61.0432 11.0592 61.1024 10.9905C61.1702 10.9116 61.2377 10.8956 61.213 10.9026C61.1696 10.9149 61.066 10.9329 60.8443 10.9406L60.9133 12.9394C61.3896 12.923 62.1239 12.8699 62.6187 12.2945C62.8606 12.0133 62.9734 11.6892 63.0311 11.3982C63.0878 11.1124 63.1028 10.798 63.1028 10.478H61.1028ZM98.4687 31.728V30.728H98.4614L98.454 30.7281L98.4687 31.728ZM96.1567 31.762L96.142 30.7621L95.1567 30.7766V31.762H96.1567ZM89.0167 31.898H90.0167V30.8836L89.0024 30.8981L89.0167 31.898ZM86.6367 31.932L86.6224 30.9321L85.6367 30.9462V31.932H86.6367ZM79.4967 32.034H80.4967V31.0192L79.482 31.0341L79.4967 32.034ZM77.1847 32.068V33.068H77.1921L77.1994 33.0679L77.1847 32.068ZM77.1847 25.88V26.88H77.1927L77.2007 26.8799L77.1847 25.88ZM98.4687 25.54V24.54H98.4607L98.4527 24.5401L98.4687 25.54ZM77.4367 15.51C77.4367 12.9061 78.4886 10.8952 80.261 9.51085C82.0594 8.10619 84.6708 7.296 87.8267 7.296V5.296C84.3526 5.296 81.269 6.1858 79.0299 7.93465C76.7648 9.70382 75.4367 12.2999 75.4367 15.51H77.4367ZM87.8267 7.296C90.9826 7.296 93.594 8.10619 95.3924 9.51085C97.1648 10.8952 98.2167 12.9061 98.2167 15.51H100.217C100.217 12.2999 98.8886 9.70382 96.6235 7.93465C94.3844 6.1858 91.3008 5.296 87.8267 5.296V7.296ZM98.2167 15.51C98.2167 18.1139 97.1648 20.1248 95.3924 21.5091C93.594 22.9138 90.9826 23.724 87.8267 23.724V25.724C91.3008 25.724 94.3844 24.8342 96.6235 23.0853C98.8886 21.3162 100.217 18.7201 100.217 15.51H98.2167ZM87.8267 23.724C84.6708 23.724 82.0594 22.9138 80.261 21.5091C78.4886 20.1248 77.4367 18.1139 77.4367 15.51H75.4367C75.4367 18.7201 76.7648 21.3162 79.0299 23.0853C81.269 24.8342 84.3526 25.724 87.8267 25.724V23.724ZM98.454 30.7281L96.142 30.7621L96.1714 32.7619L98.4834 32.7279L98.454 30.7281ZM95.1567 31.762V35.128H97.1567V31.762H95.1567ZM95.1567 35.128C95.1567 35.385 95.1376 35.5526 95.1129 35.6594C95.0892 35.7619 95.0687 35.7717 95.0878 35.7488C95.1563 35.6668 95.184 35.76 94.7627 35.76V37.76C95.3954 37.76 96.1201 37.6322 96.6222 37.0317C97.0806 36.4834 97.1567 35.7584 97.1567 35.128H95.1567ZM94.7627 35.76H90.4107V37.76H94.7627V35.76ZM90.4107 35.76C89.9894 35.76 90.0171 35.6668 90.0857 35.7488C90.1048 35.7717 90.0843 35.7619 90.0605 35.6594C90.0358 35.5526 90.0167 35.385 90.0167 35.128H88.0167C88.0167 35.7584 88.0929 36.4834 88.5513 37.0317C89.0533 37.6322 89.778 37.76 90.4107 37.76V35.76ZM90.0167 35.128V31.898H88.0167V35.128H90.0167ZM89.0024 30.8981L86.6224 30.9321L86.651 32.9319L89.031 32.8979L89.0024 30.8981ZM85.6367 31.932V35.468H87.6367V31.932H85.6367ZM85.6367 35.468C85.6367 35.725 85.6176 35.8926 85.5929 35.9994C85.5692 36.1019 85.5487 36.1117 85.5678 36.0888C85.6363 36.0068 85.664 36.1 85.2427 36.1V38.1C85.8754 38.1 86.6001 37.9722 87.1022 37.3717C87.5606 36.8234 87.6367 36.0984 87.6367 35.468H85.6367ZM85.2427 36.1H80.8907V38.1H85.2427V36.1ZM80.8907 36.1C80.4694 36.1 80.4971 36.0068 80.5657 36.0888C80.5848 36.1117 80.5643 36.1019 80.5405 35.9994C80.5158 35.8926 80.4967 35.725 80.4967 35.468H78.4967C78.4967 36.0984 78.5729 36.8234 79.0313 37.3717C79.5333 37.9722 80.258 38.1 80.8907 38.1V36.1ZM80.4967 35.468V32.034H78.4967V35.468H80.4967ZM79.482 31.0341L77.17 31.0681L77.1994 33.0679L79.5114 33.0339L79.482 31.0341ZM77.1847 31.068C77.0541 31.068 76.9767 31.0527 76.9384 31.0411C76.9033 31.0305 76.911 31.0263 76.934 31.0469C76.9592 31.0695 76.971 31.0934 76.9731 31.0989C76.9732 31.099 76.9607 31.0654 76.9607 30.98H74.9607C74.9607 31.5277 75.1228 32.1096 75.5995 32.5366C76.0561 32.9456 76.6426 33.068 77.1847 33.068V31.068ZM76.9607 30.98V26.968H74.9607V30.98H76.9607ZM76.9607 26.968C76.9607 26.8826 76.9732 26.849 76.9731 26.8491C76.971 26.8546 76.9592 26.8785 76.934 26.9011C76.911 26.9217 76.9033 26.9175 76.9384 26.9069C76.9767 26.8953 77.0541 26.88 77.1847 26.88V24.88C76.6426 24.88 76.0561 25.0024 75.5995 25.4114C75.1228 25.8384 74.9607 26.4203 74.9607 26.968H76.9607ZM77.2007 26.8799L98.4847 26.5399L98.4527 24.5401L77.1687 24.8801L77.2007 26.8799ZM98.4687 26.54C98.5993 26.54 98.6767 26.5553 98.715 26.5669C98.7501 26.5775 98.7424 26.5817 98.7195 26.5611C98.6943 26.5385 98.6824 26.5146 98.6803 26.5091C98.6803 26.509 98.6927 26.5426 98.6927 26.628H100.693C100.693 26.0803 100.531 25.4984 100.054 25.0714C99.5974 24.6624 99.0108 24.54 98.4687 24.54V26.54ZM98.6927 26.628V30.64H100.693V26.628H98.6927ZM98.6927 30.64C98.6927 30.7254 98.6803 30.759 98.6803 30.7589C98.6824 30.7534 98.6943 30.7295 98.7195 30.7069C98.7424 30.6863 98.7501 30.6905 98.715 30.7011C98.6767 30.7127 98.5993 30.728 98.4687 30.728V32.728C99.0108 32.728 99.5974 32.6056 100.054 32.1966C100.531 31.7696 100.693 31.1877 100.693 30.64H98.6927ZM87.8267 19.536C89.2756 19.536 90.5027 19.1739 91.387 18.4447C92.2905 17.6996 92.7367 16.6505 92.7367 15.51H90.7367C90.7367 16.1035 90.52 16.5674 90.1145 16.9018C89.6897 17.2521 88.9619 17.536 87.8267 17.536V19.536ZM92.7367 15.51C92.7367 14.3695 92.2905 13.3204 91.387 12.5753C90.5027 11.8461 89.2756 11.484 87.8267 11.484V13.484C88.9619 13.484 89.6897 13.7679 90.1145 14.1182C90.52 14.4526 90.7367 14.9165 90.7367 15.51H92.7367ZM87.8267 11.484C86.3779 11.484 85.1507 11.8461 84.2665 12.5753C83.363 13.3204 82.9167 14.3695 82.9167 15.51H84.9167C84.9167 14.9165 85.1335 14.4526 85.539 14.1182C85.9637 13.7679 86.6916 13.484 87.8267 13.484V11.484ZM82.9167 15.51C82.9167 16.6505 83.363 17.6996 84.2665 18.4447C85.1507 19.1739 86.3779 19.536 87.8267 19.536V17.536C86.6916 17.536 85.9637 17.2521 85.539 16.9018C85.1335 16.5674 84.9167 16.1035 84.9167 15.51H82.9167ZM116.329 14.728L116.022 15.6794L116.179 15.7304L116.344 15.7279L116.329 14.728ZM123.095 14.626L123.11 15.6259L124.095 15.611V14.626H123.095ZM123.129 24.656L124.122 24.532L124.01 23.6428L123.115 23.6561L123.129 24.656ZM118.539 24.724L118.525 23.7241L118.21 23.7288L117.955 23.9128L118.539 24.724ZM120.001 13.164L120.023 14.1639L120.036 14.1634L120.001 13.164ZM104.157 13.504L104.136 12.5042L104.129 12.5044L104.122 12.5046L104.157 13.504ZM104.157 7.656L104.141 6.65613L104.131 6.65629L104.122 6.65664L104.157 7.656ZM108.373 7.588L108.389 8.58787L109.373 8.572V7.588H108.373ZM115.853 7.418H114.853V8.44289L115.878 8.4177L115.853 7.418ZM120.001 7.316L120.026 8.31575L120.036 8.31541L120.001 7.316ZM120.715 20.372H119.715V21.3864L120.73 21.3719L120.715 20.372ZM123.095 20.338L123.11 21.3379L124.095 21.3238V20.338H123.095ZM123.095 18.944H124.095V17.9304L123.082 17.9441L123.095 18.944ZM120.579 18.978L120.566 17.9781L119.275 17.9955L119.615 19.2411L120.579 18.978ZM112.283 25.39C109.686 25.39 107.816 24.8353 106.621 23.9534C105.467 23.1012 104.851 21.8796 104.851 20.27H102.851C102.851 22.4684 103.732 24.3068 105.433 25.5626C107.095 26.7887 109.441 27.39 112.283 27.39V25.39ZM104.851 20.27C104.851 18.6604 105.467 17.4388 106.621 16.5866C107.816 15.7047 109.686 15.15 112.283 15.15V13.15C109.441 13.15 107.095 13.7513 105.433 14.9774C103.732 16.2332 102.851 18.0716 102.851 20.27H104.851ZM112.283 15.15C113.727 15.15 114.981 15.3427 116.022 15.6794L116.637 13.7766C115.366 13.3653 113.9 13.15 112.283 13.15V15.15ZM116.344 15.7279L123.11 15.6259L123.08 13.6261L116.314 13.7281L116.344 15.7279ZM124.095 14.626V8.676H122.095V14.626H124.095ZM124.095 8.676C124.095 8.2326 124.193 8.08305 124.218 8.05323C124.228 8.04231 124.241 8.02941 124.277 8.01508C124.32 7.99836 124.406 7.976 124.557 7.976V5.976C123.865 5.976 123.181 6.18651 122.695 6.75727C122.236 7.29695 122.095 7.9974 122.095 8.676H124.095ZM124.557 7.976H129.113V5.976H124.557V7.976ZM129.113 7.976C129.264 7.976 129.351 7.99836 129.393 8.01508C129.43 8.02941 129.443 8.04231 129.452 8.05323C129.478 8.08305 129.575 8.2326 129.575 8.676H131.575C131.575 7.9974 131.435 7.29695 130.976 6.75727C130.49 6.18651 129.806 5.976 129.113 5.976V7.976ZM129.575 8.676V24.18H131.575V8.676H129.575ZM129.575 24.18C129.575 24.6234 129.478 24.7729 129.452 24.8028C129.443 24.8137 129.43 24.8266 129.393 24.8409C129.351 24.8576 129.264 24.88 129.113 24.88V26.88C129.806 26.88 130.49 26.6695 130.976 26.0987C131.435 25.5591 131.575 24.8586 131.575 24.18H129.575ZM129.113 24.88H124.557V26.88H129.113V24.88ZM124.557 24.88C124.286 24.88 124.215 24.8157 124.214 24.8147C124.21 24.8115 124.197 24.8004 124.18 24.7645C124.162 24.7252 124.137 24.6527 124.122 24.532L122.137 24.78C122.209 25.3561 122.432 25.9222 122.912 26.3333C123.387 26.7403 123.979 26.88 124.557 26.88V24.88ZM123.115 23.6561L118.525 23.7241L118.554 25.7239L123.144 25.6559L123.115 23.6561ZM117.955 23.9128C116.711 24.8095 114.861 25.39 112.283 25.39V27.39C115.145 27.39 117.444 26.7465 119.124 25.5352L117.955 23.9128ZM119.763 38.616C117.048 38.616 114.901 38.089 113.465 37.1578C112.08 36.2592 111.311 34.9623 111.311 33.19H109.311C109.311 35.6677 110.447 37.5838 112.377 38.8357C114.256 40.055 116.835 40.616 119.763 40.616V38.616ZM111.311 33.19C111.311 31.4177 112.08 30.1208 113.465 29.2222C114.901 28.291 117.048 27.764 119.763 27.764V25.764C116.835 25.764 114.256 26.325 112.377 27.5443C110.447 28.7962 109.311 30.7123 109.311 33.19H111.311ZM119.763 27.764C122.479 27.764 124.626 28.291 126.062 29.2222C127.447 30.1208 128.215 31.4177 128.215 33.19H130.215C130.215 30.7123 129.08 28.7962 127.15 27.5443C125.271 26.325 122.692 25.764 119.763 25.764V27.764ZM128.215 33.19C128.215 34.9623 127.447 36.2592 126.062 37.1578C124.626 38.089 122.479 38.616 119.763 38.616V40.616C122.692 40.616 125.271 40.055 127.15 38.8357C129.08 37.5838 130.215 35.6677 130.215 33.19H128.215ZM120.293 8.846V11.634H122.293V8.846H120.293ZM120.293 11.634C120.293 11.8975 120.276 12.0571 120.254 12.1514C120.235 12.2395 120.223 12.2222 120.263 12.176C120.309 12.1228 120.351 12.114 120.322 12.1231C120.277 12.137 120.174 12.1574 119.967 12.1646L120.036 14.1634C120.565 14.1452 121.276 14.0581 121.771 13.489C122.234 12.9574 122.293 12.2394 122.293 11.634H120.293ZM119.98 12.1642L104.136 12.5042L104.179 14.5038L120.023 14.1638L119.98 12.1642ZM104.122 12.5046C103.942 12.5111 103.86 12.4945 103.837 12.4875C103.829 12.4853 103.873 12.4997 103.914 12.5472C103.946 12.585 103.93 12.5904 103.908 12.4943C103.884 12.3945 103.865 12.2313 103.865 11.974H101.865C101.865 12.5972 101.939 13.3165 102.395 13.8488C102.903 14.441 103.624 14.5237 104.193 14.5034L104.122 12.5046ZM103.865 11.974V9.186H101.865V11.974H103.865ZM103.865 9.186C103.865 8.92799 103.885 8.77184 103.906 8.68107C103.926 8.59685 103.938 8.61064 103.902 8.65186C103.86 8.69852 103.824 8.70543 103.854 8.69611C103.897 8.6823 103.997 8.66238 104.193 8.65536L104.122 6.65664C103.6 6.67528 102.902 6.76618 102.407 7.32314C101.939 7.85011 101.865 8.56232 101.865 9.186H103.865ZM104.173 8.65587L108.389 8.58787L108.357 6.58813L104.141 6.65613L104.173 8.65587ZM109.373 7.588V6.33H107.373V7.588H109.373ZM109.373 6.33C109.373 6.08777 109.397 5.94216 109.42 5.86091C109.44 5.78729 109.453 5.79244 109.427 5.81934C109.367 5.88073 109.367 5.8 109.767 5.8V3.8C109.215 3.8 108.519 3.88927 108 4.41816C107.489 4.93849 107.373 5.65718 107.373 6.33H109.373ZM109.767 5.8H114.459V3.8H109.767V5.8ZM114.459 5.8C114.859 5.8 114.86 5.88073 114.8 5.81934C114.773 5.79244 114.786 5.78729 114.807 5.86091C114.83 5.94216 114.853 6.08777 114.853 6.33H116.853C116.853 5.65718 116.738 4.93849 116.227 4.41816C115.708 3.88927 115.011 3.8 114.459 3.8V5.8ZM114.853 6.33V7.418H116.853V6.33H114.853ZM115.878 8.4177L120.026 8.3157L119.977 6.3163L115.829 6.4183L115.878 8.4177ZM120.036 8.31541C120.228 8.30879 120.314 8.32592 120.339 8.33327C120.346 8.33529 120.297 8.31894 120.251 8.26487C120.215 8.2223 120.231 8.21362 120.253 8.31351C120.276 8.4166 120.293 8.58328 120.293 8.846H122.293C122.293 8.24052 122.233 7.51573 121.783 6.97913C121.275 6.37388 120.54 6.29682 119.967 6.31659L120.036 8.31541ZM119.763 35.652C120.676 35.652 121.507 35.508 122.14 35.1148C122.842 34.6788 123.211 33.9895 123.211 33.19H121.211C121.211 33.2743 121.195 33.31 121.188 33.3227C121.181 33.3349 121.159 33.3692 121.085 33.4157C120.91 33.524 120.516 33.652 119.763 33.652V35.652ZM123.211 33.19C123.211 32.3905 122.842 31.7012 122.14 31.2652C121.507 30.872 120.676 30.728 119.763 30.728V32.728C120.516 32.728 120.91 32.856 121.085 32.9643C121.159 33.0108 121.181 33.0451 121.188 33.0573C121.195 33.07 121.211 33.1057 121.211 33.19H123.211ZM119.763 30.728C118.85 30.728 118.02 30.872 117.387 31.2652C116.685 31.7012 116.315 32.3905 116.315 33.19H118.315C118.315 33.1057 118.332 33.07 118.339 33.0573C118.346 33.0451 118.367 33.0108 118.442 32.9643C118.617 32.856 119.01 32.728 119.763 32.728V30.728ZM116.315 33.19C116.315 33.9895 116.685 34.6788 117.387 35.1148C118.02 35.508 118.85 35.652 119.763 35.652V33.652C119.01 33.652 118.617 33.524 118.442 33.4157C118.367 33.3692 118.346 33.3349 118.339 33.3227C118.332 33.31 118.315 33.2743 118.315 33.19H116.315ZM112.283 22.8C112.942 22.8 113.649 22.654 114.219 22.2386C114.832 21.7925 115.187 21.1045 115.187 20.27H113.187C113.187 20.3964 113.163 20.4684 113.143 20.5075C113.124 20.546 113.095 20.5836 113.042 20.6219C112.924 20.708 112.679 20.8 112.283 20.8V22.8ZM115.187 20.27C115.187 19.4355 114.832 18.7475 114.219 18.3014C113.649 17.886 112.942 17.74 112.283 17.74V19.74C112.679 19.74 112.924 19.832 113.042 19.9181C113.095 19.9564 113.124 19.994 113.143 20.0325C113.163 20.0716 113.187 20.1436 113.187 20.27H115.187ZM112.283 17.74C111.614 17.74 110.901 17.8837 110.33 18.3049C109.715 18.7583 109.379 19.45 109.379 20.27H111.379C111.379 20.1374 111.404 20.0623 111.424 20.0226C111.442 19.9845 111.469 19.9498 111.517 19.9146C111.626 19.8343 111.865 19.74 112.283 19.74V17.74ZM109.379 20.27C109.379 21.09 109.715 21.7817 110.33 22.2351C110.901 22.6563 111.614 22.8 112.283 22.8V20.8C111.865 20.8 111.626 20.7057 111.517 20.6254C111.469 20.5902 111.442 20.5555 111.424 20.5174C111.404 20.4777 111.379 20.4026 111.379 20.27H109.379ZM119.715 20.27V20.372H121.715V20.27H119.715ZM120.73 21.3719L123.11 21.3379L123.081 19.3381L120.701 19.3721L120.73 21.3719ZM124.095 20.338V18.944H122.095V20.338H124.095ZM123.082 17.9441L120.566 17.9781L120.593 19.9779L123.109 19.9439L123.082 17.9441ZM119.615 19.2411C119.683 19.4914 119.715 19.7983 119.715 20.27H121.715C121.715 19.7217 121.68 19.2126 121.544 18.7149L119.615 19.2411ZM165.312 25.778V24.778H165.303L165.294 24.7782L165.312 25.778ZM159.6 25.88L159.582 24.8802L158.6 24.8977V25.88H159.6ZM159.6 27.716H158.6V28.7369L159.621 28.7158L159.6 27.716ZM166.162 27.58V26.58H166.152L166.141 26.5802L166.162 27.58ZM166.162 33.768V32.768H166.154L166.145 32.7681L166.162 33.768ZM145.558 34.108V35.108H145.566L145.574 35.1079L145.558 34.108ZM145.558 27.92V28.92H145.566L145.573 28.9199L145.558 27.92ZM152.12 27.818L152.135 28.8179L153.12 28.8026V27.818H152.12ZM152.12 26.016H153.12V24.9992L152.103 25.0161L152.12 26.016ZM146 26.118V27.118H146.008L146.017 27.1179L146 26.118ZM144.606 24.486L143.606 24.5013L143.606 24.5098L143.606 24.5182L144.606 24.486ZM144.368 8.948L145.368 8.93268L145.368 8.91944L144.368 8.948ZM151.848 10.682H150.848V11.7084L151.874 11.6817L151.848 10.682ZM159.668 10.478L159.694 11.4777L160.65 11.4527L160.668 10.4962L159.668 10.478ZM159.702 8.608L160.702 8.62618L160.702 8.61709V8.608H159.702ZM167.182 8.608L168.181 8.63862L168.182 8.63656L167.182 8.608ZM166.706 24.146L167.705 24.1782L167.705 24.1766L166.706 24.146ZM151.814 19.692H150.814V20.7279L151.849 20.6914L151.814 19.692ZM159.532 19.42L159.567 20.4194L160.519 20.3858L160.532 19.4333L159.532 19.42ZM159.566 16.87L160.566 16.8833L160.58 15.8475L159.544 15.8702L159.566 16.87ZM151.814 17.04L151.792 16.0402L150.814 16.0617V17.04H151.814ZM165.294 24.7782L159.582 24.8802L159.618 26.8798L165.33 26.7778L165.294 24.7782ZM158.6 25.88V27.716H160.6V25.88H158.6ZM159.621 28.7158L166.183 28.5798L166.141 26.5802L159.579 26.7162L159.621 28.7158ZM166.162 28.58C166.292 28.58 166.37 28.5953 166.408 28.6069C166.443 28.6175 166.436 28.6217 166.413 28.6011C166.387 28.5785 166.376 28.5546 166.374 28.5491C166.373 28.549 166.386 28.5826 166.386 28.668H168.386C168.386 28.1203 168.224 27.5384 167.747 27.1114C167.291 26.7024 166.704 26.58 166.162 26.58V28.58ZM166.386 28.668V32.68H168.386V28.668H166.386ZM166.386 32.68C166.386 32.7654 166.373 32.799 166.374 32.7989C166.376 32.7934 166.387 32.7695 166.413 32.7469C166.436 32.7263 166.443 32.7305 166.408 32.7411C166.37 32.7527 166.292 32.768 166.162 32.768V34.768C166.704 34.768 167.291 34.6456 167.747 34.2366C168.224 33.8096 168.386 33.2277 168.386 32.68H166.386ZM166.145 32.7681L145.541 33.1081L145.574 35.1079L166.178 34.7679L166.145 32.7681ZM145.558 33.108C145.427 33.108 145.35 33.0927 145.312 33.0811C145.277 33.0705 145.284 33.0663 145.307 33.0869C145.332 33.1095 145.344 33.1334 145.346 33.1389C145.346 33.139 145.334 33.1054 145.334 33.02H143.334C143.334 33.5677 143.496 34.1496 143.973 34.5766C144.429 34.9856 145.016 35.108 145.558 35.108V33.108ZM145.334 33.02V29.008H143.334V33.02H145.334ZM145.334 29.008C145.334 28.9226 145.346 28.889 145.346 28.8891C145.344 28.8946 145.332 28.9185 145.307 28.9411C145.284 28.9617 145.277 28.9575 145.312 28.9469C145.35 28.9353 145.427 28.92 145.558 28.92V26.92C145.016 26.92 144.429 27.0424 143.973 27.4514C143.496 27.8784 143.334 28.4603 143.334 29.008H145.334ZM145.573 28.9199L152.135 28.8179L152.104 26.8181L145.542 26.9201L145.573 28.9199ZM153.12 27.818V26.016H151.12V27.818H153.12ZM152.103 25.0161L145.983 25.1181L146.017 27.1179L152.137 27.0159L152.103 25.0161ZM146 25.118C145.861 25.118 145.791 25.0968 145.764 25.0857C145.744 25.0774 145.739 25.0722 145.734 25.0653C145.709 25.0354 145.619 24.8865 145.605 24.4538L143.606 24.5182C143.626 25.1395 143.758 25.8066 144.184 26.3292C144.647 26.8975 145.309 27.118 146 27.118V25.118ZM145.606 24.4707L145.368 8.93268L143.368 8.96331L143.606 24.5013L145.606 24.4707ZM145.368 8.91944C145.353 8.41068 145.456 8.3211 145.431 8.34859C145.385 8.40129 145.392 8.316 145.762 8.316V6.316C145.146 6.316 144.439 6.45171 143.934 7.02291C143.45 7.56889 143.349 8.29532 143.368 8.97656L145.368 8.91944ZM145.762 8.316H150.454V6.316H145.762V8.316ZM150.454 8.316C150.794 8.316 150.8 8.39508 150.759 8.34859C150.746 8.33336 150.848 8.43812 150.848 8.948H152.848C152.848 8.26787 152.729 7.55663 152.257 7.02291C151.757 6.45792 151.066 6.316 150.454 6.316V8.316ZM150.848 8.948V10.682H152.848V8.948H150.848ZM151.874 11.6817L159.694 11.4777L159.642 9.47834L151.822 9.68234L151.874 11.6817ZM160.668 10.4962L160.702 8.62618L158.702 8.58982L158.668 10.4598L160.668 10.4962ZM160.702 8.608C160.702 8.09812 160.804 7.99336 160.791 8.00859C160.75 8.05508 160.756 7.976 161.096 7.976V5.976C160.484 5.976 159.793 6.11792 159.293 6.68291C158.821 7.21663 158.702 7.92787 158.702 8.608H160.702ZM161.096 7.976H165.788V5.976H161.096V7.976ZM165.788 7.976C166.158 7.976 166.165 8.06129 166.119 8.00859C166.094 7.9811 166.197 8.07068 166.182 8.57944L168.182 8.63656C168.201 7.95532 168.1 7.22889 167.616 6.68291C167.111 6.1117 166.404 5.976 165.788 5.976V7.976ZM166.182 8.57738L165.706 24.1154L167.705 24.1766L168.181 8.63862L166.182 8.57738ZM165.706 24.1138C165.692 24.5465 165.603 24.6954 165.578 24.7253C165.573 24.7322 165.568 24.7374 165.548 24.7457C165.521 24.7568 165.451 24.778 165.312 24.778V26.778C166.003 26.778 166.665 26.5575 167.128 25.9892C167.554 25.4666 167.685 24.7995 167.705 24.1782L165.706 24.1138ZM151.849 20.6914L159.567 20.4194L159.497 18.4206L151.779 18.6926L151.849 20.6914ZM160.532 19.4333L160.566 16.8833L158.566 16.8567L158.532 19.4067L160.532 19.4333ZM159.544 15.8702L151.792 16.0402L151.836 18.0398L159.588 17.8698L159.544 15.8702ZM150.814 17.04V19.692H152.814V17.04H150.814ZM180.147 31.388L181.143 31.4734L181.143 31.4712L180.147 31.388ZM181.575 14.286L182.571 14.3692L182.664 13.2572L181.548 13.2863L181.575 14.286ZM172.463 14.524L172.436 13.5243L172.429 13.5245L172.421 13.5249L172.463 14.524ZM172.463 7.316L172.441 6.31624L172.431 6.31646L172.421 6.31687L172.463 7.316ZM187.933 6.976L187.955 7.97582L187.966 7.97544L187.933 6.976ZM189.327 8.608L188.331 8.51746L188.33 8.52478L188.329 8.5321L189.327 8.608ZM187.593 31.388L188.589 31.4734L188.59 31.4639L187.593 31.388ZM192.129 30.64V9.356H190.129V30.64H192.129ZM192.129 9.356C192.129 8.9126 192.226 8.76305 192.251 8.73323C192.261 8.72231 192.274 8.70941 192.311 8.69509C192.353 8.67836 192.439 8.656 192.591 8.656V6.656C191.898 6.656 191.214 6.86651 190.728 7.43727C190.269 7.97695 190.129 8.6774 190.129 9.356H192.129ZM192.591 8.656H197.147V6.656H192.591V8.656ZM197.147 8.656C197.298 8.656 197.384 8.67836 197.427 8.69509C197.463 8.70941 197.476 8.72231 197.486 8.73323C197.511 8.76305 197.609 8.9126 197.609 9.356H199.609C199.609 8.6774 199.468 7.97695 199.009 7.43727C198.523 6.86651 197.839 6.656 197.147 6.656V8.656ZM197.609 9.356V30.64H199.609V9.356H197.609ZM197.609 30.64C197.609 31.0834 197.511 31.2329 197.486 31.2628C197.476 31.2737 197.463 31.2866 197.427 31.3009C197.384 31.3176 197.298 31.34 197.147 31.34V33.34C197.839 33.34 198.523 33.1295 199.009 32.5587C199.468 32.0191 199.609 31.3186 199.609 30.64H197.609ZM197.147 31.34H192.591V33.34H197.147V31.34ZM192.591 31.34C192.439 31.34 192.353 31.3176 192.311 31.3009C192.274 31.2866 192.261 31.2737 192.251 31.2628C192.226 31.2329 192.129 31.0834 192.129 30.64H190.129C190.129 31.3186 190.269 32.0191 190.728 32.5587C191.214 33.1295 191.898 33.34 192.591 33.34V31.34ZM181.143 31.4712L182.571 14.3692L180.578 14.2028L179.15 31.3048L181.143 31.4712ZM181.548 13.2863L172.436 13.5243L172.489 15.5237L181.601 15.2857L181.548 13.2863ZM172.421 13.5249C172.285 13.5305 172.209 13.5184 172.176 13.5098C172.147 13.5024 172.168 13.5025 172.203 13.5334C172.22 13.5479 172.233 13.564 172.243 13.5791C172.253 13.5937 172.256 13.6026 172.256 13.6012C172.254 13.5958 172.239 13.5484 172.239 13.436H170.239C170.239 13.9887 170.385 14.6002 170.886 15.0386C171.367 15.4593 171.978 15.545 172.504 15.5231L172.421 13.5249ZM172.239 13.436V8.404H170.239V13.436H172.239ZM172.239 8.404C172.239 8.29102 172.254 8.25335 172.251 8.26C172.245 8.27674 172.224 8.31532 172.185 8.34772C172.152 8.37473 172.142 8.36846 172.195 8.35389C172.25 8.3385 172.347 8.32168 172.504 8.31513L172.421 6.31687C171.95 6.3365 171.367 6.42573 170.904 6.81128C170.39 7.23958 170.239 7.84266 170.239 8.404H172.239ZM172.485 8.31576L187.955 7.97576L187.911 5.97624L172.441 6.31624L172.485 8.31576ZM187.966 7.97544C188.308 7.96403 188.33 8.05434 188.292 8.01026C188.273 7.98789 188.37 8.08031 188.331 8.51746L190.322 8.69854C190.385 8.01369 190.295 7.27311 189.809 6.70673C189.303 6.11865 188.577 5.95397 187.899 5.97655L187.966 7.97544ZM188.329 8.5321L186.595 31.3121L188.59 31.4639L190.324 8.6839L188.329 8.5321ZM186.596 31.3026C186.573 31.5695 186.542 31.7513 186.507 31.8755C186.473 31.9977 186.446 32.0258 186.454 32.0163C186.471 31.9958 186.492 31.9868 186.483 31.9901C186.458 31.9989 186.378 32.02 186.199 32.02V34.02C186.827 34.02 187.514 33.8776 188 33.2842C188.423 32.7692 188.537 32.0838 188.589 31.4734L186.596 31.3026ZM186.199 32.02H181.541V34.02H186.199V32.02ZM181.541 32.02C181.192 32.02 181.15 31.9362 181.179 31.9675C181.211 32.0021 181.104 31.932 181.143 31.4734L179.15 31.3026C179.088 32.034 179.201 32.7799 179.718 33.333C180.231 33.8828 180.937 34.02 181.541 34.02V32.02Z" fill="#6938EA"/>
</g>
<defs>
<clipPath id="clip0_502_474">
<rect width="209" height="43" fill="white"/>
</clipPath>
</defs>
</svg>
