<svg width="209" height="41" viewBox="0 0 209 41" fill="none" xmlns="http://www.w3.org/2000/svg">
<g clip-path="url(#clip0_502_471)">
<path d="M39.2555 34.728L38.9155 11.676C38.9155 10.758 39.1535 10.35 40.2075 10.316L54.4195 9.976C55.2355 9.942 55.6435 10.316 55.6435 11.064V15.858C55.6435 16.64 55.2355 16.912 54.4195 16.946L46.5655 17.15L46.7355 29.458L54.0455 29.254C54.8615 29.22 55.2695 29.594 55.2695 30.342V34.932C55.2695 35.714 54.8615 35.986 54.0455 36.02L40.6495 36.36C39.6635 36.394 39.2895 35.918 39.2555 34.728ZM57.4455 33.64V12.356C57.4455 11.234 57.9215 10.656 58.9075 10.656H63.4635C64.4495 10.656 64.9255 11.234 64.9255 12.356V19.462L66.6935 19.394C67.5435 19.36 67.9855 19.734 67.9855 20.55V25.106C67.9855 25.82 67.5435 26.228 66.6935 26.262L64.9255 26.33V33.64C64.9255 34.762 64.4495 35.34 63.4635 35.34H58.9075C57.9215 35.34 57.4455 34.762 57.4455 33.64ZM83.8101 35.068L79.7981 29.764L75.7181 35.884C75.3101 36.53 74.8001 36.496 74.2221 36.054L70.4481 33.198C69.8021 32.722 69.7001 32.144 70.1421 31.464L75.5141 23.644C75.9221 22.998 76.0581 22.352 76.0581 21.536V11.608C76.0581 10.418 76.5001 9.976 77.4521 9.976H82.1441C83.0961 9.976 83.5381 10.418 83.5381 11.608V21.706C83.5381 22.522 83.6401 23.168 84.0821 23.814L89.2161 30.886C89.6581 31.532 89.7261 32.008 89.0801 32.518L85.2381 35.374C84.6941 35.748 84.2181 35.646 83.8101 35.068ZM90.4401 33.64V12.356C90.4401 11.234 90.9161 10.656 91.9021 10.656H96.4581C97.4441 10.656 97.9201 11.234 97.9201 12.356V33.64C97.9201 34.762 97.4441 35.34 96.4581 35.34H91.9021C90.9161 35.34 90.4401 34.762 90.4401 33.64ZM119.601 34.456C114.195 34.456 110.829 31.158 110.829 26.16C110.829 21.162 114.195 17.83 119.601 17.83C125.007 17.83 128.373 21.162 128.373 26.16C128.373 31.158 125.007 34.456 119.601 34.456ZM129.563 33.64V12.356C129.563 11.234 130.039 10.656 131.025 10.656H135.581C136.567 10.656 137.043 11.234 137.043 12.356V19.462L138.811 19.394C139.661 19.36 140.103 19.734 140.103 20.55V25.106C140.103 25.82 139.661 26.228 138.811 26.262L137.043 26.33V33.64C137.043 34.762 136.567 35.34 135.581 35.34H131.025C130.039 35.34 129.563 34.762 129.563 33.64ZM128.441 12.186V15.314C128.441 16.504 128.135 16.81 127.149 16.844L111.645 17.184C110.693 17.218 110.353 16.844 110.353 15.654V12.526C110.353 11.336 110.693 11.03 111.645 10.996L115.691 10.928V9.67C115.691 8.48 116.133 8.14 117.085 8.14H121.777C122.729 8.14 123.171 8.48 123.171 9.67V10.758L127.149 10.656C128.135 10.622 128.441 10.996 128.441 12.186ZM119.601 28.2C121.063 28.2 121.845 27.35 121.845 26.16C121.845 24.936 121.063 24.086 119.601 24.086C118.139 24.086 117.357 24.936 117.357 26.16C117.357 27.35 118.139 28.2 119.601 28.2ZM162.557 33.64V12.356C162.557 11.234 163.033 10.656 164.019 10.656H168.575C169.561 10.656 170.037 11.234 170.037 12.356V33.64C170.037 34.762 169.561 35.34 168.575 35.34H164.019C163.033 35.34 162.557 34.762 162.557 33.64ZM151.575 34.388L153.003 17.286L143.891 17.524C143.075 17.558 142.667 17.218 142.667 16.436V11.404C142.667 10.622 143.075 10.35 143.891 10.316L159.361 9.976C160.381 9.942 160.857 10.486 160.755 11.608L159.021 34.388C158.919 35.578 158.613 36.02 157.627 36.02H152.969C152.017 36.02 151.473 35.578 151.575 34.388Z" fill="white"/>
<path d="M39.2555 34.728L38.2555 34.7427L38.2559 34.7566L39.2555 34.728ZM38.9155 11.676H37.9155V11.6834L37.9156 11.6907L38.9155 11.676ZM40.2075 10.316L40.1835 9.31625L40.1752 9.31652L40.2075 10.316ZM54.4195 9.976L54.4434 10.9757L54.4522 10.9755L54.4611 10.9751L54.4195 9.976ZM54.4195 16.946L54.4454 17.9457L54.4533 17.9455L54.4611 17.9451L54.4195 16.946ZM46.5655 17.15L46.5395 16.1503L45.5519 16.176L45.5656 17.1638L46.5655 17.15ZM46.7355 29.458L45.7356 29.4718L45.7496 30.4859L46.7634 30.4576L46.7355 29.458ZM54.0455 29.254L54.0734 30.2537L54.0871 30.2531L54.0455 29.254ZM54.0455 36.02L54.0708 37.0197L54.079 37.0195L54.0871 37.0191L54.0455 36.02ZM40.6495 36.36L40.6241 35.3603L40.615 35.3606L40.6495 36.36ZM64.9255 19.462H63.9255V20.5012L64.9639 20.4613L64.9255 19.462ZM66.6935 19.394L66.7319 20.3933L66.7334 20.3932L66.6935 19.394ZM66.6935 26.262L66.7319 27.2613L66.7334 27.2612L66.6935 26.262ZM64.9255 26.33L64.887 25.3307L63.9255 25.3677V26.33H64.9255ZM40.2554 34.7133L39.9154 11.6613L37.9156 11.6907L38.2556 34.7427L40.2554 34.7133ZM39.9155 11.676C39.9155 11.4813 39.929 11.3688 39.9435 11.3061C39.9562 11.2511 39.9604 11.275 39.9224 11.3189C39.8808 11.3669 39.8467 11.3727 39.8798 11.3615C39.9248 11.3464 40.0314 11.3222 40.2397 11.3155L40.1752 9.31652C39.5679 9.33611 38.8825 9.46422 38.41 10.0101C37.9621 10.5277 37.9155 11.1927 37.9155 11.676H39.9155ZM40.2314 11.3157L54.4434 10.9757L54.3955 8.97628L40.1835 9.31629L40.2314 11.3157ZM54.4611 10.9751C54.5888 10.9698 54.6601 10.9825 54.6904 10.9908C54.7165 10.998 54.6999 10.9981 54.6702 10.9716C54.6566 10.9594 54.6454 10.946 54.6372 10.9337C54.6293 10.9217 54.6269 10.9147 54.6276 10.9165C54.6296 10.9221 54.6435 10.9649 54.6435 11.064H56.6435C56.6435 10.5161 56.4907 9.91729 56.0047 9.48191C55.5322 9.05861 54.9256 8.95404 54.3778 8.97686L54.4611 10.9751ZM54.6435 11.064V15.858H56.6435V11.064H54.6435ZM54.6435 15.858C54.6435 15.971 54.6281 16.0086 54.6306 16.002C54.6369 15.9853 54.6584 15.9467 54.6973 15.9143C54.7297 15.8873 54.7398 15.8935 54.6873 15.9081C54.6319 15.9235 54.5349 15.9403 54.3778 15.9469L54.4611 17.9451C54.9324 17.9255 55.515 17.8363 55.9776 17.4507C56.4916 17.0224 56.6435 16.4193 56.6435 15.858H54.6435ZM54.3935 15.9463L46.5395 16.1503L46.5914 18.1497L54.4454 17.9457L54.3935 15.9463ZM45.5656 17.1638L45.7356 29.4718L47.7354 29.4442L47.5654 17.1362L45.5656 17.1638ZM46.7634 30.4576L54.0734 30.2536L54.0176 28.2544L46.7076 28.4584L46.7634 30.4576ZM54.0871 30.2531C54.2148 30.2478 54.2861 30.2605 54.3164 30.2688C54.3425 30.276 54.3259 30.2761 54.2962 30.2496C54.2826 30.2374 54.2714 30.224 54.2632 30.2117C54.2553 30.1997 54.2529 30.1927 54.2536 30.1945C54.2556 30.2001 54.2695 30.2429 54.2695 30.342H56.2695C56.2695 29.7941 56.1167 29.1953 55.6307 28.7599C55.1582 28.3366 54.5516 28.232 54.0038 28.2549L54.0871 30.2531ZM54.2695 30.342V34.932H56.2695V30.342H54.2695ZM54.2695 34.932C54.2695 35.045 54.2541 35.0826 54.2566 35.076C54.2629 35.0593 54.2844 35.0207 54.3233 34.9883C54.3557 34.9613 54.3658 34.9675 54.3133 34.9821C54.2579 34.9975 54.1609 35.0143 54.0038 35.0209L54.0871 37.0191C54.5584 36.9995 55.141 36.9103 55.6036 36.5247C56.1176 36.0964 56.2695 35.4933 56.2695 34.932H54.2695ZM54.0201 35.0203L40.6241 35.3603L40.6748 37.3597L54.0708 37.0197L54.0201 35.0203ZM40.615 35.3606C40.4448 35.3665 40.3643 35.3473 40.3384 35.3386C40.3258 35.3343 40.3452 35.3407 40.3617 35.3604C40.3709 35.3714 40.3454 35.3476 40.3165 35.237C40.2869 35.1238 40.2623 34.9523 40.2551 34.6994L38.2559 34.7566C38.2743 35.4016 38.3812 36.1114 38.8293 36.6456C39.3301 37.2428 40.0388 37.3817 40.6839 37.3594L40.615 35.3606ZM58.4455 33.64V12.356H56.4455V33.64H58.4455ZM58.4455 12.356C58.4455 11.9126 58.543 11.7631 58.5684 11.7332C58.5777 11.7223 58.5908 11.7094 58.6275 11.6951C58.6702 11.6784 58.7564 11.656 58.9075 11.656V9.656C58.215 9.656 57.5306 9.86651 57.0451 10.4373C56.5859 10.9769 56.4455 11.6774 56.4455 12.356H58.4455ZM58.9075 11.656H63.4635V9.656H58.9075V11.656ZM63.4635 11.656C63.6145 11.656 63.7007 11.6784 63.7435 11.6951C63.7801 11.7094 63.7933 11.7223 63.8026 11.7332C63.8279 11.7631 63.9255 11.9126 63.9255 12.356H65.9255C65.9255 11.6774 65.785 10.9769 65.3259 10.4373C64.8403 9.86651 64.156 9.656 63.4635 9.656V11.656ZM63.9255 12.356V19.462H65.9255V12.356H63.9255ZM64.9639 20.4613L66.7319 20.3933L66.655 18.3947L64.887 18.4627L64.9639 20.4613ZM66.7334 20.3932C66.8729 20.3876 66.9553 20.4008 66.9957 20.4116C67.0318 20.4213 67.0218 20.4253 66.9966 20.4031C66.9693 20.379 66.9615 20.3571 66.9642 20.3645C66.9692 20.3782 66.9855 20.4331 66.9855 20.55H68.9855C68.9855 19.9697 68.8249 19.349 68.3198 18.9034C67.8323 18.4732 67.2091 18.3726 66.6535 18.3948L66.7334 20.3932ZM66.9855 20.55V25.106H68.9855V20.55H66.9855ZM66.9855 25.106C66.9855 25.1822 66.9737 25.2141 66.9725 25.2172C66.9719 25.2187 66.973 25.2155 66.9769 25.2098C66.9809 25.2041 66.9852 25.1994 66.9884 25.1964C67.005 25.1815 66.9407 25.2513 66.6535 25.2628L66.7334 27.2612C67.2962 27.2387 67.8779 27.0875 68.328 26.6816C68.8001 26.2557 68.9855 25.6789 68.9855 25.106H66.9855ZM66.655 25.2627L64.887 25.3307L64.9639 27.3293L66.7319 27.2613L66.655 25.2627ZM63.9255 26.33V33.64H65.9255V26.33H63.9255ZM63.9255 33.64C63.9255 34.0834 63.8279 34.2329 63.8026 34.2628C63.7933 34.2737 63.7801 34.2866 63.7435 34.3009C63.7007 34.3176 63.6145 34.34 63.4635 34.34V36.34C64.156 36.34 64.8403 36.1295 65.3259 35.5587C65.785 35.0191 65.9255 34.3186 65.9255 33.64H63.9255ZM63.4635 34.34H58.9075V36.34H63.4635V34.34ZM58.9075 34.34C58.7564 34.34 58.6702 34.3176 58.6275 34.3009C58.5908 34.2866 58.5777 34.2737 58.5684 34.2628C58.543 34.2329 58.4455 34.0834 58.4455 33.64H56.4455C56.4455 34.3186 56.5859 35.0191 57.0451 35.5587C57.5306 36.1295 58.215 36.34 58.9075 36.34V34.34ZM83.8101 35.068L84.627 34.4913L84.6175 34.4779L84.6076 34.4647L83.8101 35.068ZM79.7981 29.764L80.5956 29.1607L79.7466 28.0384L78.966 29.2093L79.7981 29.764ZM75.7181 35.884L74.886 35.3293L74.8792 35.3396L74.8726 35.35L75.7181 35.884ZM74.2221 36.054L74.8295 35.2596L74.8255 35.2566L74.2221 36.054ZM70.4481 33.198L71.0516 32.4005L71.0413 32.3929L70.4481 33.198ZM70.1421 31.464L69.3178 30.8978L69.3106 30.9083L69.3036 30.919L70.1421 31.464ZM75.5141 23.644L76.3383 24.2102L76.3493 24.1943L76.3596 24.178L75.5141 23.644ZM84.0821 23.814L83.2568 24.3787L83.2646 24.3902L83.2728 24.4015L84.0821 23.814ZM89.2161 30.886L90.0414 30.3213L90.0335 30.3098L90.0253 30.2985L89.2161 30.886ZM89.0801 32.518L89.6767 33.3205L89.6883 33.3119L89.6997 33.3029L89.0801 32.518ZM85.2381 35.374L85.8046 36.198L85.8198 36.1876L85.8347 36.1765L85.2381 35.374ZM84.6076 34.4647L80.5956 29.1607L79.0005 30.3673L83.0125 35.6713L84.6076 34.4647ZM78.966 29.2093L74.886 35.3293L76.5501 36.4387L80.6301 30.3187L78.966 29.2093ZM74.8726 35.35C74.8207 35.4321 74.7967 35.4425 74.8162 35.4287C74.8271 35.421 74.8473 35.4089 74.8764 35.3983C74.9059 35.3876 74.9368 35.3813 74.9662 35.3793C75.0254 35.3753 75.0481 35.3903 75.0199 35.3788C75.006 35.3731 74.9826 35.3621 74.9495 35.3422C74.9164 35.3224 74.8764 35.2955 74.8295 35.2596L73.6146 36.8484C73.9761 37.1247 74.491 37.4161 75.1015 37.3747C75.7777 37.3289 76.256 36.905 76.5636 36.418L74.8726 35.35ZM74.8255 35.2566L71.0515 32.4006L69.8446 33.9954L73.6186 36.8514L74.8255 35.2566ZM71.0413 32.3929C70.8479 32.2504 70.864 32.189 70.8719 32.2337C70.8793 32.2761 70.8444 32.2184 70.9805 32.009L69.3036 30.919C68.9978 31.3896 68.7928 31.9609 68.9023 32.5813C69.0122 33.204 69.4023 33.6696 69.8549 34.0031L71.0413 32.3929ZM70.9663 32.0302L76.3383 24.2102L74.6898 23.0778L69.3178 30.8978L70.9663 32.0302ZM76.3596 24.178C76.8958 23.3289 77.0581 22.4823 77.0581 21.536H75.0581C75.0581 22.2217 74.9483 22.6671 74.6686 23.11L76.3596 24.178ZM77.0581 21.536V11.608H75.0581V21.536H77.0581ZM77.0581 11.608C77.0581 11.0981 77.1603 10.9934 77.1468 11.0086C77.1057 11.0551 77.1123 10.976 77.4521 10.976V8.976C76.8399 8.976 76.1495 9.11792 75.6493 9.68291C75.1768 10.2166 75.0581 10.9279 75.0581 11.608H77.0581ZM77.4521 10.976H82.1441V8.976H77.4521V10.976ZM82.1441 10.976C82.4839 10.976 82.4905 11.0551 82.4493 11.0086C82.4358 10.9934 82.5381 11.0981 82.5381 11.608H84.5381C84.5381 10.9279 84.4193 10.2166 83.9468 9.68291C83.4467 9.11792 82.7563 8.976 82.1441 8.976V10.976ZM82.5381 11.608V21.706H84.5381V11.608H82.5381ZM82.5381 21.706C82.5381 22.6155 82.6523 23.4952 83.2568 24.3787L84.9074 23.2493C84.6278 22.8408 84.5381 22.4285 84.5381 21.706H82.5381ZM83.2728 24.4015L88.4068 31.4735L90.0253 30.2985L84.8913 23.2265L83.2728 24.4015ZM88.3908 31.4507C88.4789 31.5794 88.5242 31.6654 88.546 31.7191C88.5667 31.7697 88.5552 31.7642 88.5566 31.7208C88.5583 31.6681 88.5762 31.6278 88.5836 31.6158C88.5849 31.6136 88.5597 31.6547 88.4604 31.7331L89.6997 33.3029C90.15 32.9474 90.534 32.4541 90.5556 31.7852C90.5748 31.1879 90.2881 30.682 90.0414 30.3213L88.3908 31.4507ZM88.4835 31.7155L84.6415 34.5715L85.8347 36.1765L89.6767 33.3205L88.4835 31.7155ZM84.6715 34.55C84.607 34.5943 84.5786 34.6008 84.5852 34.599C84.5893 34.5979 84.6014 34.5952 84.6203 34.5945C84.6395 34.5939 84.6609 34.5955 84.6826 34.6002C84.7042 34.6048 84.7208 34.6113 84.7316 34.6164C84.742 34.6214 84.7441 34.6239 84.7385 34.6196C84.7256 34.6097 84.6859 34.5748 84.627 34.4913L82.9931 35.6447C83.2771 36.047 83.6884 36.4325 84.2635 36.5558C84.8556 36.6827 85.3896 36.4833 85.8046 36.198L84.6715 34.55ZM91.4401 33.64V12.356H89.4401V33.64H91.4401ZM91.4401 12.356C91.4401 11.9126 91.5376 11.7631 91.563 11.7332C91.5723 11.7223 91.5855 11.7094 91.6221 11.6951C91.6648 11.6784 91.751 11.656 91.9021 11.656V9.656C91.2096 9.656 90.5252 9.86651 90.0397 10.4373C89.5805 10.9769 89.4401 11.6774 89.4401 12.356H91.4401ZM91.9021 11.656H96.4581V9.656H91.9021V11.656ZM96.4581 11.656C96.6091 11.656 96.6953 11.6784 96.7381 11.6951C96.7747 11.7094 96.7879 11.7223 96.7972 11.7332C96.8225 11.7631 96.9201 11.9126 96.9201 12.356H98.9201C98.9201 11.6774 98.7796 10.9769 98.3205 10.4373C97.8349 9.86651 97.1506 9.656 96.4581 9.656V11.656ZM96.9201 12.356V33.64H98.9201V12.356H96.9201ZM96.9201 33.64C96.9201 34.0834 96.8225 34.2329 96.7972 34.2628C96.7879 34.2737 96.7747 34.2866 96.7381 34.3009C96.6953 34.3176 96.6091 34.34 96.4581 34.34V36.34C97.1506 36.34 97.8349 36.1295 98.3205 35.5587C98.7796 35.0191 98.9201 34.3186 98.9201 33.64H96.9201ZM96.4581 34.34H91.9021V36.34H96.4581V34.34ZM91.9021 34.34C91.751 34.34 91.6648 34.3176 91.6221 34.3009C91.5855 34.2866 91.5723 34.2737 91.563 34.2628C91.5376 34.2329 91.4401 34.0834 91.4401 33.64H89.4401C89.4401 34.3186 89.5805 35.0191 90.0397 35.5587C90.5252 36.1295 91.2096 36.34 91.9021 36.34V34.34ZM137.043 19.462H136.043V20.5012L137.081 20.4613L137.043 19.462ZM138.811 19.394L138.849 20.3933L138.851 20.3932L138.811 19.394ZM138.811 26.262L138.849 27.2613L138.851 27.2612L138.811 26.262ZM137.043 26.33L137.004 25.3307L136.043 25.3677V26.33H137.043ZM127.149 16.844L127.171 17.8438L127.183 17.8434L127.149 16.844ZM111.645 17.184L111.623 16.1841L111.609 16.1846L111.645 17.184ZM111.645 10.996L111.628 9.99614L111.618 9.9963L111.609 9.99664L111.645 10.996ZM115.691 10.928L115.707 11.9279L116.691 11.9113V10.928H115.691ZM123.171 10.758H122.171V11.784L123.196 11.7577L123.171 10.758ZM127.149 10.656L127.174 11.6557L127.183 11.6554L127.149 10.656ZM119.601 33.456C117.101 33.456 115.174 32.6968 113.878 31.4591C112.587 30.2254 111.829 28.4273 111.829 26.16H109.829C109.829 28.8907 110.754 31.2406 112.497 32.9054C114.235 34.5662 116.694 35.456 119.601 35.456V33.456ZM111.829 26.16C111.829 23.8923 112.587 22.0845 113.88 20.8419C115.177 19.596 117.104 18.83 119.601 18.83V16.83C116.691 16.83 114.232 17.73 112.495 19.3996C110.753 21.0725 109.829 23.4297 109.829 26.16H111.829ZM119.601 18.83C122.097 18.83 124.024 19.596 125.321 20.8419C126.614 22.0845 127.373 23.8923 127.373 26.16H129.373C129.373 23.4297 128.448 21.0725 126.707 19.3996C124.969 17.73 122.51 16.83 119.601 16.83V18.83ZM127.373 26.16C127.373 28.4273 126.615 30.2254 125.323 31.4591C124.027 32.6968 122.1 33.456 119.601 33.456V35.456C122.507 35.456 124.966 34.5662 126.705 32.9054C128.448 31.2406 129.373 28.8907 129.373 26.16H127.373ZM130.563 33.64V12.356H128.563V33.64H130.563ZM130.563 12.356C130.563 11.9126 130.66 11.7631 130.686 11.7332C130.695 11.7223 130.708 11.7094 130.745 11.6951C130.787 11.6784 130.874 11.656 131.025 11.656V9.656C130.332 9.656 129.648 9.86651 129.162 10.4373C128.703 10.9769 128.563 11.6774 128.563 12.356H130.563ZM131.025 11.656H135.581V9.656H131.025V11.656ZM135.581 11.656C135.732 11.656 135.818 11.6784 135.861 11.6951C135.897 11.7094 135.91 11.7223 135.92 11.7332C135.945 11.7631 136.043 11.9126 136.043 12.356H138.043C138.043 11.6774 137.902 10.9769 137.443 10.4373C136.957 9.86651 136.273 9.656 135.581 9.656V11.656ZM136.043 12.356V19.462H138.043V12.356H136.043ZM137.081 20.4613L138.849 20.3933L138.772 18.3947L137.004 18.4627L137.081 20.4613ZM138.851 20.3932C138.99 20.3876 139.072 20.4008 139.113 20.4116C139.149 20.4213 139.139 20.4253 139.114 20.4031C139.086 20.379 139.079 20.3571 139.081 20.3645C139.086 20.3782 139.103 20.4331 139.103 20.55H141.103C141.103 19.9697 140.942 19.349 140.437 18.9034C139.949 18.4732 139.326 18.3726 138.771 18.3948L138.851 20.3932ZM139.103 20.55V25.106H141.103V20.55H139.103ZM139.103 25.106C139.103 25.1822 139.091 25.2141 139.09 25.2172C139.089 25.2187 139.09 25.2155 139.094 25.2098C139.098 25.2041 139.102 25.1994 139.106 25.1964C139.122 25.1815 139.058 25.2513 138.771 25.2628L138.851 27.2612C139.413 27.2387 139.995 27.0875 140.445 26.6816C140.917 26.2557 141.103 25.6789 141.103 25.106H139.103ZM138.772 25.2627L137.004 25.3307L137.081 27.3293L138.849 27.2613L138.772 25.2627ZM136.043 26.33V33.64H138.043V26.33H136.043ZM136.043 33.64C136.043 34.0834 135.945 34.2329 135.92 34.2628C135.91 34.2737 135.897 34.2866 135.861 34.3009C135.818 34.3176 135.732 34.34 135.581 34.34V36.34C136.273 36.34 136.957 36.1295 137.443 35.5587C137.902 35.0191 138.043 34.3186 138.043 33.64H136.043ZM135.581 34.34H131.025V36.34H135.581V34.34ZM131.025 34.34C130.874 34.34 130.787 34.3176 130.745 34.3009C130.708 34.2866 130.695 34.2737 130.686 34.2628C130.66 34.2329 130.563 34.0834 130.563 33.64H128.563C128.563 34.3186 128.703 35.0191 129.162 35.5587C129.648 36.1295 130.332 36.34 131.025 36.34V34.34ZM127.441 12.186V15.314H129.441V12.186H127.441ZM127.441 15.314C127.441 15.5775 127.423 15.7371 127.402 15.8314C127.382 15.9195 127.37 15.9022 127.41 15.856C127.456 15.8028 127.499 15.794 127.469 15.8031C127.425 15.817 127.322 15.8374 127.114 15.8446L127.183 17.8434C127.712 17.8252 128.423 17.7381 128.919 17.169C129.381 16.6374 129.441 15.9194 129.441 15.314H127.441ZM127.127 15.8442L111.623 16.1842L111.667 18.1838L127.171 17.8438L127.127 15.8442ZM111.609 16.1846C111.429 16.1911 111.348 16.1745 111.324 16.1675C111.317 16.1653 111.36 16.1797 111.401 16.2272C111.433 16.265 111.417 16.2704 111.395 16.1743C111.372 16.0745 111.353 15.9113 111.353 15.654H109.353C109.353 16.2772 109.426 16.9965 109.882 17.5288C110.39 18.121 111.111 18.2037 111.68 18.1834L111.609 16.1846ZM111.353 15.654V12.526H109.353V15.654H111.353ZM111.353 12.526C111.353 12.268 111.372 12.1118 111.394 12.0211C111.414 11.9368 111.426 11.9506 111.389 11.9919C111.348 12.0385 111.311 12.0454 111.341 12.0361C111.385 12.0223 111.484 12.0024 111.68 11.9954L111.609 9.99664C111.087 10.0153 110.389 10.1062 109.894 10.6631C109.426 11.1901 109.353 11.9023 109.353 12.526H111.353ZM111.661 11.9959L115.707 11.9279L115.674 9.92814L111.628 9.99614L111.661 11.9959ZM116.691 10.928V9.67H114.691V10.928H116.691ZM116.691 9.67C116.691 9.42777 116.714 9.28216 116.737 9.20091C116.758 9.12729 116.771 9.13244 116.744 9.15934C116.684 9.22073 116.685 9.14 117.085 9.14V7.14C116.533 7.14 115.836 7.22927 115.317 7.75816C114.806 8.27849 114.691 8.99718 114.691 9.67H116.691ZM117.085 9.14H121.777V7.14H117.085V9.14ZM121.777 9.14C122.177 9.14 122.177 9.22073 122.117 9.15934C122.091 9.13244 122.104 9.12729 122.124 9.20091C122.147 9.28215 122.171 9.42777 122.171 9.67H124.171C124.171 8.99718 124.055 8.27849 123.544 7.75816C123.025 7.22927 122.329 7.14 121.777 7.14V9.14ZM122.171 9.67V10.758H124.171V9.67H122.171ZM123.196 11.7577L127.174 11.6557L127.123 9.65633L123.145 9.75833L123.196 11.7577ZM127.183 11.6554C127.375 11.6488 127.461 11.6659 127.486 11.6733C127.493 11.6753 127.444 11.6589 127.398 11.6049C127.363 11.5623 127.379 11.5536 127.4 11.6535C127.423 11.7566 127.441 11.9233 127.441 12.186H129.441C129.441 11.5805 129.381 10.8557 128.93 10.3191C128.422 9.71388 127.688 9.63682 127.114 9.65659L127.183 11.6554ZM119.601 29.2C120.525 29.2 121.356 28.9282 121.962 28.3494C122.571 27.7677 122.845 26.9785 122.845 26.16H120.845C120.845 26.5315 120.728 26.7623 120.58 26.9031C120.43 27.0468 120.139 27.2 119.601 27.2V29.2ZM122.845 26.16C122.845 25.332 122.575 24.534 121.966 23.9449C121.358 23.358 120.525 23.086 119.601 23.086V25.086C120.138 25.086 120.427 25.239 120.576 25.3831C120.723 25.525 120.845 25.764 120.845 26.16H122.845ZM119.601 23.086C118.676 23.086 117.843 23.358 117.236 23.9449C116.626 24.534 116.357 25.332 116.357 26.16H118.357C118.357 25.764 118.478 25.525 118.625 25.3831C118.774 25.239 119.063 25.086 119.601 25.086V23.086ZM116.357 26.16C116.357 26.9785 116.631 27.7677 117.24 28.3494C117.846 28.9282 118.677 29.2 119.601 29.2V27.2C119.063 27.2 118.772 27.0468 118.621 26.9031C118.474 26.7623 118.357 26.5315 118.357 26.16H116.357ZM151.575 34.388L152.572 34.4734L152.572 34.4712L151.575 34.388ZM153.003 17.286L154 17.3692L154.093 16.2572L152.977 16.2863L153.003 17.286ZM143.891 17.524L143.865 16.5243L143.857 16.5245L143.85 16.5249L143.891 17.524ZM143.891 10.316L143.869 9.31624L143.859 9.31646L143.85 9.31687L143.891 10.316ZM159.361 9.976L159.383 10.9758L159.395 10.9754L159.361 9.976ZM160.755 11.608L159.759 11.5175L159.759 11.5248L159.758 11.5321L160.755 11.608ZM159.021 34.388L160.018 34.4734L160.018 34.4639L159.021 34.388ZM163.557 33.64V12.356H161.557V33.64H163.557ZM163.557 12.356C163.557 11.9126 163.655 11.7631 163.68 11.7332C163.689 11.7223 163.703 11.7094 163.739 11.6951C163.782 11.6784 163.868 11.656 164.019 11.656V9.656C163.327 9.656 162.642 9.86651 162.157 10.4373C161.698 10.9769 161.557 11.6774 161.557 12.356H163.557ZM164.019 11.656H168.575V9.656H164.019V11.656ZM168.575 11.656C168.726 11.656 168.813 11.6784 168.855 11.6951C168.892 11.7094 168.905 11.7223 168.914 11.7332C168.94 11.7631 169.037 11.9126 169.037 12.356H171.037C171.037 11.6774 170.897 10.9769 170.438 10.4373C169.952 9.86651 169.268 9.656 168.575 9.656V11.656ZM169.037 12.356V33.64H171.037V12.356H169.037ZM169.037 33.64C169.037 34.0834 168.94 34.2329 168.914 34.2628C168.905 34.2737 168.892 34.2866 168.855 34.3009C168.813 34.3176 168.726 34.34 168.575 34.34V36.34C169.268 36.34 169.952 36.1295 170.438 35.5587C170.897 35.0191 171.037 34.3186 171.037 33.64H169.037ZM168.575 34.34H164.019V36.34H168.575V34.34ZM164.019 34.34C163.868 34.34 163.782 34.3176 163.739 34.3009C163.703 34.2866 163.689 34.2737 163.68 34.2628C163.655 34.2329 163.557 34.0834 163.557 33.64H161.557C161.557 34.3186 161.698 35.0191 162.157 35.5587C162.642 36.1295 163.327 36.34 164.019 36.34V34.34ZM152.572 34.4712L154 17.3692L152.007 17.2028L150.579 34.3048L152.572 34.4712ZM152.977 16.2863L143.865 16.5243L143.917 18.5237L153.029 18.2857L152.977 16.2863ZM143.85 16.5249C143.714 16.5305 143.638 16.5184 143.605 16.5098C143.576 16.5024 143.596 16.5025 143.632 16.5334C143.648 16.5479 143.662 16.564 143.672 16.5791C143.682 16.5937 143.685 16.6026 143.684 16.6012C143.682 16.5958 143.667 16.5484 143.667 16.436H141.667C141.667 16.9887 141.814 17.6002 142.315 18.0386C142.796 18.4593 143.407 18.545 143.933 18.5231L143.85 16.5249ZM143.667 16.436V11.404H141.667V16.436H143.667ZM143.667 11.404C143.667 11.291 143.683 11.2534 143.68 11.26C143.674 11.2767 143.652 11.3153 143.613 11.3477C143.581 11.3747 143.571 11.3685 143.623 11.3539C143.679 11.3385 143.776 11.3217 143.933 11.3151L143.85 9.31687C143.378 9.3365 142.796 9.42573 142.333 9.81128C141.819 10.2396 141.667 10.8427 141.667 11.404H143.667ZM143.913 11.3158L159.383 10.9758L159.339 8.97624L143.869 9.31624L143.913 11.3158ZM159.395 10.9754C159.737 10.964 159.758 11.0543 159.721 11.0103C159.701 10.9879 159.799 11.0803 159.759 11.5175L161.751 11.6985C161.813 11.0137 161.724 10.2731 161.237 9.70673C160.732 9.11865 160.005 8.95397 159.328 8.97655L159.395 10.9754ZM159.758 11.5321L158.024 34.3121L160.018 34.4639L161.752 11.6839L159.758 11.5321ZM158.025 34.3026C158.002 34.5695 157.971 34.7513 157.936 34.8755C157.902 34.9977 157.875 35.0258 157.882 35.0163C157.899 34.9958 157.921 34.9868 157.912 34.9901C157.887 34.9989 157.806 35.02 157.627 35.02V37.02C158.256 37.02 158.943 36.8776 159.429 36.2842C159.851 35.7692 159.965 35.0838 160.018 34.4734L158.025 34.3026ZM157.627 35.02H152.969V37.02H157.627V35.02ZM152.969 35.02C152.621 35.02 152.578 34.9362 152.608 34.9675C152.64 35.0021 152.532 34.932 152.572 34.4734L150.579 34.3026C150.516 35.034 150.629 35.7799 151.146 36.333C151.66 36.8828 152.366 37.02 152.969 37.02V35.02Z" fill="#6938EA"/>
</g>
<defs>
<clipPath id="clip0_502_471">
<rect width="209" height="41" fill="white"/>
</clipPath>
</defs>
</svg>
