<svg width="161" height="27" viewBox="0 0 161 27" fill="none" xmlns="http://www.w3.org/2000/svg">
<path d="M0.874695 20.61L0.614695 3.138C0.614695 2.54 0.848695 2.41 1.4727 2.384L10.9887 2.124C11.6127 2.098 11.8467 2.28 11.8467 2.878V5.4C11.8467 5.998 11.6127 6.128 10.9887 6.154L5.1647 6.31L5.1907 9.898L9.2467 9.768C9.8707 9.742 10.1047 9.924 10.1047 10.522V12.966C10.1047 13.564 9.8707 13.694 9.2467 13.72L5.2427 13.85L5.2947 17.802L10.4427 17.646C11.0667 17.62 11.3007 17.802 11.3007 18.4V20.766C11.3007 21.364 11.0667 21.494 10.4427 21.52L1.8627 21.78C1.1087 21.806 0.900695 21.52 0.874695 20.61ZM13.3027 19.83V13.486L12.1067 13.512C11.4827 13.538 11.2487 13.356 11.2487 12.758V10.314C11.2487 9.716 11.4827 9.586 12.1067 9.56L13.3027 9.534V3.814C13.3027 2.904 13.5627 2.644 14.2907 2.644H16.7347C17.4887 2.644 17.7227 2.904 17.7227 3.814V19.83C17.7227 20.74 17.4887 21 16.7347 21H14.2907C13.5627 21 13.3027 20.74 13.3027 19.83ZM18.9707 19.57V3.554C18.9707 2.644 19.2307 2.384 19.9587 2.384H22.4027C23.1567 2.384 23.3907 2.644 23.3907 3.554V19.57C23.3907 20.48 23.1567 20.74 22.4027 20.74H19.9587C19.2307 20.74 18.9707 20.48 18.9707 19.57ZM41.5316 16.45L34.8756 12.758L28.2716 16.684C27.6736 17.074 27.3616 17.152 26.9716 16.502L25.5676 14.188C25.2816 13.746 25.5156 13.46 26.0096 13.174L31.7296 9.742C32.3276 9.404 32.6136 9.17 32.6136 8.156V3.294C32.6136 2.384 32.8736 2.124 33.6016 2.124H36.0976C36.8516 2.124 37.0856 2.384 37.0856 3.294V8.156C37.0856 9.17 37.3456 9.404 37.9696 9.742L43.7416 12.914C44.2356 13.2 44.4696 13.434 44.1836 13.928L42.8056 16.32C42.4156 16.944 42.1556 16.788 41.5316 16.45ZM42.5716 22.092L27.1796 22.352C26.5556 22.352 26.3216 22.196 26.3216 21.598V19.154C26.3216 18.556 26.5556 18.4 27.1796 18.4L42.5716 18.14C43.1956 18.14 43.4296 18.296 43.4296 18.894V21.338C43.4296 21.936 43.1956 22.092 42.5716 22.092ZM48.0005 2.384L63.2625 2.124C63.8865 2.124 64.0685 2.306 64.0685 3.008V4.984C64.0685 5.634 63.8865 5.842 63.2625 5.842L51.6925 6.05V7.532L62.8465 7.324C63.4705 7.324 63.7045 7.48 63.7045 8.078V10.366C63.7045 10.964 63.4705 11.12 62.8465 11.12L51.7185 11.328L51.7445 12.836L62.8205 12.628C63.4445 12.628 63.7045 12.81 63.7045 13.512V15.644C63.7045 16.294 63.5225 16.502 62.8985 16.502L48.3125 16.762C47.5845 16.762 47.3505 16.502 47.3245 15.592L47.1425 3.138C47.1425 2.54 47.3765 2.384 48.0005 2.384ZM63.3665 22.092L47.9745 22.352C47.3505 22.352 47.1165 22.196 47.1165 21.598V19.154C47.1165 18.556 47.3505 18.4 47.9745 18.4L63.3665 18.14C63.9905 18.14 64.2245 18.296 64.2245 18.894V21.338C64.2245 21.936 63.9905 22.092 63.3665 22.092ZM83.7525 26.59C79.0205 26.59 76.9145 24.276 76.9145 21.468C76.9145 18.66 79.0205 16.346 83.7525 16.346C88.5105 16.346 90.5905 18.66 90.5905 21.468C90.5905 24.276 88.5105 26.59 83.7525 26.59ZM75.7965 11.38L79.8785 11.328V8.78C79.8785 7.87 80.1385 7.61 80.8665 7.61H83.3105C84.0645 7.61 84.2985 7.87 84.2985 8.78V11.25L91.7085 11.12C92.3325 11.12 92.5665 11.276 92.5665 11.874V14.318C92.5665 14.916 92.3325 15.072 91.7085 15.072L75.7965 15.332C75.1725 15.332 74.9385 15.176 74.9385 14.578V12.134C74.9385 11.536 75.1725 11.38 75.7965 11.38ZM87.8085 8.702L87.9125 5.426L75.9005 5.686C75.2765 5.686 75.0425 5.53 75.0425 4.932V2.618C75.0425 2.02 75.2765 1.864 75.9005 1.864L91.4745 1.604C92.2805 1.604 92.4885 1.864 92.4625 2.774L92.2285 8.702C92.2025 9.612 91.9945 9.872 91.2405 9.872H88.7965C88.0685 9.872 87.7825 9.612 87.8085 8.702ZM83.7525 23.418C85.5985 23.418 86.3005 22.482 86.3005 21.468C86.3005 20.454 85.5985 19.518 83.7525 19.518C81.9065 19.518 81.2045 20.454 81.2045 21.468C81.2045 22.482 81.9065 23.418 83.7525 23.418ZM95.8375 8.52C95.8375 4.074 99.6595 1.604 104.547 1.604C109.435 1.604 113.257 4.074 113.257 8.52C113.257 12.966 109.435 15.436 104.547 15.436C99.6595 15.436 95.8375 12.966 95.8375 8.52ZM96.5915 16.58L112.503 16.32C113.127 16.32 113.361 16.476 113.361 17.074V19.518C113.361 20.116 113.127 20.272 112.503 20.272L110.137 20.324V23.21C110.137 24.12 109.955 24.38 109.149 24.38H106.965C106.159 24.38 105.977 24.12 105.977 23.21V20.376L103.117 20.428V23.47C103.117 24.38 102.935 24.64 102.129 24.64H99.9455C99.1395 24.64 98.9575 24.38 98.9575 23.47V20.506L96.5915 20.532C95.9675 20.532 95.7335 20.376 95.7335 19.778V17.334C95.7335 16.736 95.9675 16.58 96.5915 16.58ZM104.547 11.744C107.043 11.744 108.577 10.47 108.577 8.52C108.577 6.57 107.043 5.296 104.547 5.296C102.051 5.296 100.517 6.57 100.517 8.52C100.517 10.47 102.051 11.744 104.547 11.744ZM122.846 20.324C118.712 20.324 116.138 17.802 116.138 13.98C116.138 10.158 118.712 7.61 122.846 7.61C126.98 7.61 129.554 10.158 129.554 13.98C129.554 17.802 126.98 20.324 122.846 20.324ZM130.984 19.83V3.814C130.984 2.904 131.244 2.644 131.972 2.644H134.416C135.17 2.644 135.404 2.904 135.404 3.814V9.768L137.146 9.716C137.77 9.69 138.004 9.872 138.004 10.47V12.914C138.004 13.512 137.77 13.642 137.146 13.668L135.404 13.72V19.83C135.404 20.74 135.17 21 134.416 21H131.972C131.244 21 130.984 20.74 130.984 19.83ZM129.866 3.814V5.426C129.866 6.336 129.632 6.57 128.878 6.596L116.762 6.856C116.034 6.882 115.774 6.596 115.774 5.686V4.074C115.774 3.164 116.034 2.93 116.762 2.904L120.636 2.826V1.89C120.636 0.979999 120.896 0.719999 121.624 0.719999H124.068C124.796 0.719999 125.056 0.979999 125.056 1.89V2.722L128.878 2.644C129.632 2.618 129.866 2.904 129.866 3.814ZM122.846 16.58C124.614 16.58 125.602 15.514 125.602 13.98C125.602 12.42 124.614 11.354 122.846 11.354C121.078 11.354 120.09 12.42 120.09 13.98C120.09 15.514 121.052 16.58 122.846 16.58ZM155.942 19.83V3.814C155.942 2.904 156.202 2.644 156.93 2.644H159.374C160.128 2.644 160.362 2.904 160.362 3.814V19.83C160.362 20.74 160.128 21 159.374 21H156.93C156.202 21 155.942 20.74 155.942 19.83ZM148.064 20.35L149.156 6.154L140.81 6.336C140.186 6.336 139.952 6.18 139.952 5.582V3.138C139.952 2.54 140.186 2.384 140.81 2.384L152.796 2.124C153.602 2.098 153.862 2.384 153.784 3.294L152.458 20.35C152.38 21.26 152.224 21.52 151.47 21.52H149.052C148.324 21.52 147.986 21.26 148.064 20.35Z" fill="#6938EA"/>
</svg>
